<?xml version="1.0" encoding="UTF-8"?><svg xmlns="http://www.w3.org/2000/svg" xmlns:xlink="http://www.w3.org/1999/xlink" viewBox="0 0 380.33 311"><defs><style>.cls-1{letter-spacing:-.09em;}.cls-2{letter-spacing:-.09em;}.cls-3{letter-spacing:-.09em;}.cls-4{letter-spacing:-.09em;}.cls-5{filter:url(#drop-shadow-1);font-family:Helvetica-Bold, Helvetica;font-size:60.72px;}.cls-5,.cls-6{font-weight:700;}.cls-7{fill:#f4900c;}.cls-8{fill:#ffac33;}.cls-9{fill:#99aab5;}.cls-10{fill:#9266cc;}.cls-11{fill:#ccd6dd;}.cls-12{fill:#269;}.cls-13{fill:#55acee;}.cls-14{fill:#553788;}.cls-15{letter-spacing:-.11em;}.cls-16{letter-spacing:-.11em;}.cls-17{letter-spacing:-.11em;}.cls-18{letter-spacing:-.1em;}.cls-19{letter-spacing:-.11em;}.cls-20{letter-spacing:-.11em;}.cls-21{fill:#c2da69;stroke:#fff;stroke-miterlimit:10;}.cls-22{letter-spacing:-.11em;}.cls-23{letter-spacing:-.11em;}.cls-24{letter-spacing:-.11em;}.cls-25{letter-spacing:-.1em;}.cls-26{letter-spacing:-.1em;}.cls-27{letter-spacing:-.1em;}.cls-28{letter-spacing:-.1em;}.cls-6{fill:#82d5f9;font-family:GillSans-Bold, 'Gill Sans';font-size:60px;}.cls-29{letter-spacing:-.12em;}.cls-30{isolation:isolate;}.cls-31{mix-blend-mode:multiply;opacity:.75;}.cls-32{letter-spacing:-.12em;}.cls-33{letter-spacing:-.1em;}.cls-34{letter-spacing:-.1em;}.cls-35{letter-spacing:-.11em;}.cls-36{letter-spacing:-.1em;}.cls-37{letter-spacing:-.1em;}</style><filter id="drop-shadow-1" filterUnits="userSpaceOnUse"><feOffset dx="7" dy="7"/><feGaussianBlur result="blur" stdDeviation="1"/><feFlood flood-color="#c8dffc" flood-opacity=".75"/><feComposite in2="blur" operator="in"/><feComposite in="SourceGraphic"/></filter></defs><g class="cls-30"><g id="Layer_1"><path class="cls-14" d="m160.7,231.27c0,9.79-3.34,17.73-12.66,17.73h-29.54c-16.88,0-16.88-62.04,0-62.04h29.54c9.32,0,12.66,7.94,12.66,17.73v26.59Z"/><path class="cls-10" d="m240.89,240.14h-4.22v-44.31h4.22c2.33,0,4.22-1.98,4.22-4.43s-1.89-4.43-4.22-4.43h-101.29c-16.88,0-16.88,62.04,0,62.04h101.29c2.33,0,4.22-1.98,4.22-4.43s-1.89-4.43-4.22-4.43Z"/><path class="cls-11" d="m241.61,240.14h-97.79c-8.44,0-8.44-44.31,0-44.31h97.79c4.66,0,4.66,44.31,0,44.31Z"/><path class="cls-9" d="m145.93,204.69h98.55c-.57-5.21-1.52-8.86-2.86-8.86h-97.79c-6.97,0-8.18,30.17-3.64,40.72-1.65-13.11.26-31.85,5.75-31.85Z"/><path class="cls-12" d="m148.04,129.35c0,9.79-7.56,17.73-16.88,17.73h-16.88c-16.88,0-16.88-48.75,0-48.75h16.88c9.32,0,16.88,7.94,16.88,17.73v13.29Z"/><path class="cls-13" d="m228.23,138.22h-4.22v-31.02h4.22c2.33,0,4.22-1.98,4.22-4.43s-1.89-4.43-4.22-4.43h-101.29c-16.88,0-16.88,48.75,0,48.75h101.29c2.33,0,4.22-1.98,4.22-4.43s-1.89-4.43-4.22-4.43Z"/><path class="cls-11" d="m228.95,138.22h-97.79c-8.44,0-8.44-31.02,0-31.02h97.79c4.66,0,4.66,31.02,0,31.02Z"/><path class="cls-9" d="m131.16,116.06h100.97c-.48-4.99-1.54-8.86-3.18-8.86h-97.79c-5.03,0-7.04,11.03-6.07,19.94.66-6.02,2.66-11.08,6.07-11.08Z"/><path class="cls-7" d="m181.8,169.23c0,9.79-7.56,17.73-16.88,17.73h-42.2c-16.88,0-16.88-39.88,0-39.88h42.2c9.32,0,16.88,7.94,16.88,17.73v4.43Z"/><path class="cls-8" d="m245.11,178.1h-4.22v-22.16h4.22c2.33,0,4.22-1.98,4.22-4.43s-1.89-4.43-4.22-4.43h-84.41c-16.88,0-16.88,39.88,0,39.88h84.41c2.33,0,4.22-1.98,4.22-4.43s-1.89-4.43-4.22-4.43Z"/><path class="cls-11" d="m245.83,178.1h-80.91c-8.44,0-8.44-22.16,0-22.16h80.91c4.66,0,4.66,22.16,0,22.16Z"/><path class="cls-9" d="m164.92,164.8h84.34c-.27-4.71-1.41-8.86-3.43-8.86h-80.91c-5.38,0-7.31,8.98-5.84,15.51.84-3.72,2.77-6.65,5.84-6.65Z"/><text class="cls-5" transform="translate(304.1 52.21) scale(.45 1)"><tspan class="cls-26"><tspan x="0" y="0"> </tspan></tspan><tspan class="cls-21"><tspan class="cls-29" x="-132.22" y="72.86">A</tspan><tspan class="cls-37" x="-95.57" y="72.86">d</tspan><tspan class="cls-15" x="-64.82" y="72.86">o</tspan><tspan class="cls-18" x="-34.26" y="72.86">l</tspan><tspan class="cls-3" x="-23.64" y="72.86">e</tspan><tspan class="cls-16" x="4.58" y="72.86">s</tspan><tspan class="cls-28" x="31.83" y="72.86">c</tspan><tspan class="cls-1" x="59.54" y="72.86">e</tspan><tspan class="cls-24" x="87.71" y="72.86">n</tspan><tspan class="cls-25" x="118.07" y="72.86">t </tspan></tspan><tspan class="cls-21"><tspan class="cls-22" x="-90.77" y="145.72">L</tspan><tspan class="cls-17" x="-60.5" y="145.72">i</tspan><tspan class="cls-19" x="-50.15" y="145.72">t</tspan><tspan class="cls-4" x="-36.6" y="145.72">e</tspan><tspan class="cls-33" x="-8.38" y="145.72">ra</tspan><tspan class="cls-32" x="36.36" y="145.72">c</tspan><tspan class="cls-27" x="63.08" y="145.72">y </tspan></tspan><tspan class="cls-21"><tspan class="cls-35" x="-94.06" y="218.59">C</tspan><tspan class="cls-20" x="-56.6" y="218.59">o</tspan><tspan class="cls-23" x="-26.13" y="218.59">u</tspan><tspan class="cls-36" x="4.17" y="218.59">r</tspan><tspan class="cls-34" x="21.47" y="218.59">s</tspan><tspan class="cls-2" x="48.94" y="218.59">e</tspan><tspan class="cls-27" x="77.16" y="218.59">s</tspan></tspan></text><image class="cls-31" width="200" height="116" transform="translate(3.33 5)" xlink:href="free-literacy1.png"/><image class="cls-31" width="203" height="122" transform="translate(.33 2)" xlink:href="free-literacy2.png"/><text class="cls-6" transform="translate(10.17 86.76) rotate(-11.63)"><tspan x="0" y="0">FREE!</tspan></text></g></g></svg>