<?xml version="1.0" encoding="utf-8"?>
<!-- Generator: Adobe Illustrator 27.2.0, SVG Export Plug-In . SVG Version: 6.00 Build 0)  -->
<svg version="1.1" id="Layer_1" xmlns="http://www.w3.org/2000/svg" xmlns:xlink="http://www.w3.org/1999/xlink" x="0px" y="0px"
	 viewBox="0 0 484 484" style="enable-background:new 0 0 484 484;" xml:space="preserve">
<style type="text/css">
	.st0{fill:#17577B;}
	.st1{fill:#F7F5F5;}
	.st2{font-family:'Helvetica-Bold';}
	.st3{font-size:100px;}
</style>
<g>
	<path class="st0" d="M243.5,480.5c-62.5,0-121.3-24.4-165.5-68.8S9.5,308.3,9.5,245.5S33.8,123.7,78,79.3s103-68.8,165.5-68.8
		S364.8,35,409,79.3s68.5,103.4,68.5,166.2S453.2,367.3,409,411.7S306,480.5,243.5,480.5L243.5,480.5z"/>
	<path class="st0" d="M243.5,11c31.5,0,62.1,6.2,90.9,18.4c27.8,11.8,52.8,28.7,74.2,50.3c21.4,21.5,38.3,46.6,50,74.5
		c12.2,28.9,18.4,59.6,18.4,91.3s-6.2,62.4-18.4,91.3c-11.8,27.9-28.6,53-50,74.5c-21.4,21.5-46.4,38.4-74.2,50.3
		C305.6,473.8,275,480,243.5,480s-62.1-6.2-90.9-18.4c-27.8-11.8-52.8-28.7-74.2-50.3s-38.3-46.6-50-74.5
		C16.1,307.9,10,277.2,10,245.5s6.2-62.4,18.4-91.3c11.8-27.9,28.6-53,50-74.5s46.4-38.4,74.2-50.3C181.4,17.2,212,11,243.5,11
		 M243.5,10C114,10,9,115.5,9,245.5S114,481,243.5,481S478,375.6,478,245.5S373,10,243.5,10L243.5,10z"/>
</g>
<text transform="matrix(1 0 0 1 30.05 266.16)" class="st1 st2 st3">LAUNCH</text>
</svg>
