<?xml version="1.0" encoding="UTF-8"?><svg id="Layer_1" xmlns="http://www.w3.org/2000/svg" viewBox="0 0 484 484"><defs><style>.cls-1{fill:#f7f5f5;font-family:Helvetica-Bold, Helvetica;font-size:100px;font-weight:700;}.cls-2{fill:#f7f7f7;}.cls-3{fill:#24c938;}</style></defs><g><path class="cls-3" d="m242,483.5c-64.51,0-125.15-25.12-170.77-70.73S.5,306.51.5,242,25.62,116.85,71.23,71.23,177.49.5,242,.5s125.15,25.12,170.77,70.73,70.73,106.26,70.73,170.77-25.12,125.15-70.73,170.77-106.26,70.73-170.77,70.73Z"/><path class="cls-2" d="m242,1c32.54,0,64.1,6.37,93.81,18.94,28.7,12.14,54.47,29.52,76.61,51.65,22.13,22.13,39.51,47.91,51.65,76.6,12.57,29.71,18.94,61.27,18.94,93.81s-6.37,64.1-18.94,93.81c-12.14,28.7-29.52,54.47-51.65,76.61-22.13,22.13-47.91,39.51-76.61,51.65-29.71,12.57-61.27,18.94-93.81,18.94s-64.1-6.37-93.81-18.94c-28.7-12.14-54.47-29.52-76.6-51.65-22.13-22.13-39.51-47.91-51.65-76.61C7.37,306.1,1,274.54,1,242s6.37-64.1,18.94-93.81c12.14-28.7,29.52-54.47,51.65-76.6,22.13-22.13,47.91-39.51,76.6-51.65C177.9,7.37,209.46,1,242,1m0-1C108.35,0,0,108.35,0,242s108.35,242,242,242,242-108.35,242-242S375.65,0,242,0h0Z"/></g><text class="cls-1" transform="translate(30.05 266.16)"><tspan x="0" y="0">LAUNCH</tspan></text></svg>