<?xml version="1.0" encoding="UTF-8"?><svg id="Layer_1" xmlns="http://www.w3.org/2000/svg" viewBox="0 0 474 476"><defs><style>.cls-1{fill:#f7f7f7;}.cls-2{fill:#24c938;}.cls-3,.cls-4{isolation:isolate;}.cls-4{fill:#f7f5f5;font-family:Helvetica-Bold, Helvetica;font-size:100px;font-weight:700;}</style></defs><g><path class="cls-2" d="m237,475.51c-63.18,0-122.56-24.7-167.24-69.56C25.08,361.09.49,301.44.49,238S25.09,114.92,69.76,70.05C114.43,25.19,173.82.49,237,.49s122.56,24.7,167.24,69.56c44.68,44.86,69.27,104.5,69.27,167.95s-24.6,123.08-69.27,167.95c-44.67,44.87-104.06,69.56-167.24,69.56h0Z"/><path class="cls-1" d="m237,.98c31.87,0,62.78,6.26,91.87,18.63,28.11,11.94,53.34,29.03,75.03,50.8,21.67,21.76,38.69,47.12,50.58,75.33,12.31,29.22,18.55,60.26,18.55,92.26s-6.24,63.04-18.55,92.26c-11.89,28.23-28.91,53.57-50.58,75.34-21.67,21.76-46.92,38.86-75.03,50.8-29.1,12.36-60,18.63-91.87,18.63s-62.78-6.26-91.87-18.63c-28.11-11.94-53.34-29.03-75.02-50.8-21.67-21.76-38.69-47.12-50.58-75.34C7.22,301.04.98,270,.98,238s6.24-63.04,18.55-92.26c11.89-28.23,28.91-53.57,50.58-75.33,21.67-21.76,46.92-38.86,75.02-50.8C174.22,7.25,205.13.98,237,.98m0-.98C106.11,0,0,106.56,0,238s106.11,238,237,238,237-106.56,237-238S367.89,0,237,0h0Z"/></g><g class="cls-3"><text class="cls-4" transform="translate(26.05 261.16)"><tspan x="0" y="0">LAUNCH</tspan></text></g></svg>