<?xml version="1.0" encoding="utf-8"?>
<!-- Generator: Adobe Illustrator 27.2.0, SVG Export Plug-In . SVG Version: 6.00 Build 0)  -->
<svg version="1.1" id="ios7_x5F_arrows_1_" xmlns="http://www.w3.org/2000/svg" xmlns:xlink="http://www.w3.org/1999/xlink" x="0px"
	 y="0px" viewBox="0 0 128 128" style="enable-background:new 0 0 128 128;" xml:space="preserve">
<g id="_x33__1_">
	<path id="icon_36_" d="M67.1,35.9l-3.5,3.5l22.7,22.8h-60V67h59.3L63.6,89.2l3.5,3.5l28.3-28.4l-0.1-0.1l0.1-0.1
		C95.4,64.1,67.1,35.9,67.1,35.9z M63.1,5C30.6,5,4.2,31.5,4.2,64s26.4,59,58.9,59S122,96.5,122,64C121.9,31.5,95.5,5,63.1,5z
		 M63.1,118.1c-29.9,0-54-24.2-54-54.1s24.1-54.1,54-54.1c29.8,0,54,24.2,54,54.1C117,93.9,92.9,118.1,63.1,118.1z"/>
</g>
</svg>
