<?xml version="1.0" encoding="utf-8"?>
<!-- Generator: Adobe Illustrator 27.2.0, SVG Export Plug-In . SVG Version: 6.00 Build 0)  -->
<svg version="1.1" id="ios7_x5F_arrows_1_" xmlns="http://www.w3.org/2000/svg" xmlns:xlink="http://www.w3.org/1999/xlink" x="0px"
	 y="0px" viewBox="0 0 128 128" style="enable-background:new 0 0 128 128;" xml:space="preserve">
<style type="text/css">
	.st0{fill:#17577B;}
</style>
<g id="_x33__1_">
	<path id="icon_36_" class="st0" d="M67.9,41.9L65,44.8L84,64H33.7v4h49.8L65,86.6l2.9,2.9l23.8-23.8l-0.1-0.1l0.1-0.1
		C91.7,65.6,67.9,41.9,67.9,41.9z M64.6,16c-27.3,0-49.4,22.2-49.4,49.5S37.3,115,64.6,115S114,92.8,114,65.5
		C113.9,38.2,91.8,16,64.6,16z M64.6,110.9c-25.1,0-45.3-20.3-45.3-45.4s20.2-45.4,45.3-45.4c25,0,45.3,20.3,45.3,45.4
		C109.8,90.6,89.6,110.9,64.6,110.9z"/>
</g>
</svg>
