<svg xmlns="http://www.w3.org/2000/svg" viewBox="0 0 700 700"><path d="M522.878 26.585 180.124 25A152.823 152.823 0 0 0 26.592 177.123l-1.59 342.751a152.837 152.837 0 0 0 152.12 153.541L519.877 675a152.835 152.835 0 0 0 153.54-152.124l1.582-342.75a152.832 152.832 0 0 0-152.12-153.541z" style="fill:#ff4747"/><path d="m533.07 340.197-315.048-159.35a12.621 12.621 0 0 0-18.315 11.206l-1.463 315.777a12.621 12.621 0 0 0 18.21 11.376L532.961 362.78a12.626 12.626 0 0 0 .108-22.583z" style="fill:#fff"/></svg>