<?xml version="1.0" encoding="UTF-8"?>
<svg id="Layer_1" xmlns="http://www.w3.org/2000/svg" viewBox="0 0 200 200"><defs><style>.cls-1{fill:#fff;}.cls-2{fill:#ff4747;}</style></defs><path class="cls-2" d="m153.19.49L47.73,0C21.76-.12.61,20.83.49,46.8c0,0,0,0,0,0L0,152.27c-.12,25.97,20.84,47.12,46.81,47.24l105.46.49c25.97.12,47.12-20.84,47.24-46.81l.49-105.46c.12-25.97-20.84-47.12-46.81-47.24,0,0,0,0,0,0h0Z"/><path class="cls-1" d="m156.33,96.98L59.39,47.95c-1.91-.97-4.25-.2-5.22,1.71-.27.54-.41,1.13-.42,1.73l-.45,97.16c-.01,2.14,1.72,3.89,3.86,3.9.6,0,1.2-.13,1.74-.4l97.39-48.13c1.92-.95,2.71-3.28,1.76-5.2-.37-.75-.98-1.36-1.73-1.74h0Z"/></svg>